<svg xmlns="http://www.w3.org/2000/svg" xmlns:xlink="http://www.w3.org/1999/xlink" width="123" zoomAndPan="magnify" viewBox="0 0 92.25 47.25" height="63" preserveAspectRatio="xMidYMid meet" version="1.0"><defs><clipPath id="21644cf72c"><path d="M 0.351562 0 L 91 0 L 91 46.511719 L 0.351562 46.511719 Z M 0.351562 0 " clip-rule="nonzero"/></clipPath><clipPath id="b787f9bdd8"><path d="M 84.957031 11.878906 L 90.726562 11.878906 L 90.726562 46.402344 L 84.957031 46.402344 Z M 84.957031 11.878906 " clip-rule="nonzero"/></clipPath><clipPath id="ff3c4d4414"><path d="M 0.957031 0.878906 L 6.726562 0.878906 L 6.726562 35.402344 L 0.957031 35.402344 Z M 0.957031 0.878906 " clip-rule="nonzero"/></clipPath><clipPath id="1590e03829"><rect x="0" width="7" y="0" height="36"/></clipPath><clipPath id="f94884b83a"><path d="M 0.351562 0 L 5.730469 0 L 5.730469 46.402344 L 0.351562 46.402344 Z M 0.351562 0 " clip-rule="nonzero"/></clipPath><clipPath id="39a834bd9c"><path d="M 0.351562 0 L 5.730469 0 L 5.730469 46.402344 L 0.351562 46.402344 Z M 0.351562 0 " clip-rule="nonzero"/></clipPath><clipPath id="4012ffd970"><rect x="0" width="6" y="0" height="47"/></clipPath><clipPath id="a276867396"><path d="M 3.039062 29.671875 L 88.035156 29.671875 L 88.035156 35.050781 L 3.039062 35.050781 Z M 3.039062 29.671875 " clip-rule="nonzero"/></clipPath><clipPath id="b961714f9b"><path d="M 0.0390625 0.671875 L 85.035156 0.671875 L 85.035156 6.050781 L 0.0390625 6.050781 Z M 0.0390625 0.671875 " clip-rule="nonzero"/></clipPath><clipPath id="aa5ecf9c76"><rect x="0" width="86" y="0" height="7"/></clipPath><clipPath id="349e9ca65d"><path d="M 6.648438 20.40625 L 23.347656 20.40625 L 23.347656 28.757812 L 6.648438 28.757812 Z M 6.648438 20.40625 " clip-rule="nonzero"/></clipPath><clipPath id="3f8aa67e3d"><path d="M 19.175781 20.40625 C 21.480469 20.40625 23.347656 22.277344 23.347656 24.582031 C 23.347656 26.886719 21.480469 28.757812 19.175781 28.757812 L 10.824219 28.757812 C 8.519531 28.757812 6.648438 26.886719 6.648438 24.582031 C 6.648438 22.277344 8.519531 20.40625 10.824219 20.40625 Z M 19.175781 20.40625 " clip-rule="nonzero"/></clipPath><clipPath id="3c40d9954d"><path d="M 0.648438 0.40625 L 17.347656 0.40625 L 17.347656 8.757812 L 0.648438 8.757812 Z M 0.648438 0.40625 " clip-rule="nonzero"/></clipPath><clipPath id="ab4252d30c"><path d="M 13.175781 0.40625 C 15.480469 0.40625 17.347656 2.277344 17.347656 4.582031 C 17.347656 6.886719 15.480469 8.757812 13.175781 8.757812 L 4.824219 8.757812 C 2.519531 8.757812 0.648438 6.886719 0.648438 4.582031 C 0.648438 2.277344 2.519531 0.40625 4.824219 0.40625 Z M 13.175781 0.40625 " clip-rule="nonzero"/></clipPath><clipPath id="5f3f4e3029"><rect x="0" width="18" y="0" height="9"/></clipPath><clipPath id="7c16b5679f"><rect x="0" width="91" y="0" height="47"/></clipPath></defs><g clip-path="url(#21644cf72c)"><g transform="matrix(1, 0, 0, 1, 0, 0.000000000000000899)"><g clip-path="url(#7c16b5679f)"><g clip-path="url(#b787f9bdd8)"><g transform="matrix(1, 0, 0, 1, 84, 11)"><g clip-path="url(#1590e03829)"><g clip-path="url(#ff3c4d4414)"><path fill="#4c6e9d" d="M 0.957031 0.878906 L 6.726562 0.878906 L 6.726562 35.398438 L 0.957031 35.398438 Z M 0.957031 0.878906 " fill-opacity="1" fill-rule="nonzero"/></g></g></g></g><g clip-path="url(#f94884b83a)"><g transform="matrix(1, 0, 0, 1, 0, 0.000000000000000899)"><g clip-path="url(#4012ffd970)"><g clip-path="url(#39a834bd9c)"><path fill="#4c6e9d" d="M 0.351562 0 L 5.730469 0 L 5.730469 46.402344 L 0.351562 46.402344 Z M 0.351562 0 " fill-opacity="1" fill-rule="nonzero"/></g></g></g></g><g clip-path="url(#a276867396)"><g transform="matrix(1, 0, 0, 1, 3, 29)"><g clip-path="url(#aa5ecf9c76)"><g clip-path="url(#b961714f9b)"><path fill="#4c6e9d" d="M 0.0390625 6.050781 L 0.0390625 0.671875 L 85.027344 0.671875 L 85.027344 6.050781 Z M 0.0390625 6.050781 " fill-opacity="1" fill-rule="nonzero"/></g></g></g></g><g clip-path="url(#349e9ca65d)"><g clip-path="url(#3f8aa67e3d)"><g transform="matrix(1, 0, 0, 1, 6, 20)"><g clip-path="url(#5f3f4e3029)"><g clip-path="url(#3c40d9954d)"><g clip-path="url(#ab4252d30c)"><path fill="#4c6e9d" d="M 0.648438 0.40625 L 17.347656 0.40625 L 17.347656 8.757812 L 0.648438 8.757812 Z M 0.648438 0.40625 " fill-opacity="1" fill-rule="nonzero"/></g></g></g></g></g></g></g></g></g></svg>